<svg width="25" height="4" viewBox="0 0 25 4" fill="none" xmlns="http://www.w3.org/2000/svg">
<path d="M2.08039 4C1.51622 4 1.02844 3.80226 0.617066 3.40678C0.205689 3.0113 0 2.54237 0 2C0 1.43503 0.205689 0.960452 0.617066 0.576271C1.02844 0.192091 1.51622 0 2.08039 0C2.64457 0 3.13822 0.192091 3.56135 0.576271C3.98449 0.960452 4.19605 1.42373 4.19605 1.9661C4.19605 2.53107 3.98449 3.0113 3.56135 3.40678C3.13822 3.80226 2.64457 4 2.08039 4ZM12.5176 4C11.9299 4 11.4304 3.80226 11.019 3.40678C10.6077 3.0113 10.402 2.54237 10.402 2C10.402 1.43503 10.6077 0.960452 11.019 0.576271C11.4304 0.192091 11.9182 0 12.4824 0C13.0701 0 13.5637 0.192091 13.9633 0.576271C14.363 0.960452 14.5628 1.42373 14.5628 1.9661C14.5628 2.53107 14.363 3.0113 13.9633 3.40678C13.5637 3.80226 13.0818 4 12.5176 4ZM22.8843 4C22.2967 4 21.7971 3.80226 21.3858 3.40678C20.9744 3.0113 20.7687 2.54237 20.7687 2C20.7687 1.43503 20.9744 0.960452 21.3858 0.576271C21.7971 0.192091 22.2967 0 22.8843 0C23.472 0 23.9716 0.192091 24.3829 0.576271C24.7943 0.960452 25 1.42373 25 1.9661C25 2.53107 24.7943 3.0113 24.3829 3.40678C23.9716 3.80226 23.472 4 22.8843 4Z" fill="#0D7AFF"/>
</svg>
