<svg width="15" height="21" viewBox="0 0 15 21" fill="none" xmlns="http://www.w3.org/2000/svg">
<path d="M7.52396 0C7.71566 0 7.89137 0.0314617 8.05112 0.0943832C8.21086 0.157305 8.35463 0.251686 8.48243 0.377527L14.7125 6.51236C14.9042 6.73258 15 6.99214 15 7.29101C15 7.58989 14.8882 7.84944 14.6645 8.06966C14.4409 8.28989 14.1853 8.4 13.8978 8.4C13.6102 8.4 13.3387 8.28989 13.0831 8.06966L8.6262 3.58652L8.6262 19.9146C8.6262 20.2292 8.52237 20.4888 8.3147 20.6933C8.10703 20.8978 7.84345 21 7.52396 21C7.20447 21 6.9409 20.8978 6.73323 20.6933C6.52556 20.4888 6.42173 20.2292 6.42173 19.9146L6.42173 3.58652L1.91693 8.06966C1.69329 8.25843 1.42971 8.36067 1.1262 8.3764C0.822685 8.39213 0.559107 8.28989 0.335464 8.06966C0.111822 7.84944 -9.53674e-07 7.58989 -9.53674e-07 7.29101C-9.53674e-07 6.99214 0.111822 6.73258 0.335464 6.51236L6.5655 0.377527C6.69329 0.251686 6.83706 0.157305 6.99681 0.0943832C7.15655 0.0314617 7.33227 0 7.52396 0Z" fill="#0D7AFF"/>
</svg>
