<svg width="7" height="13" viewBox="0 0 7 13" fill="none" xmlns="http://www.w3.org/2000/svg">
                                <path d="M0.286011 12.6903C0.104109 12.4569 0.00895746 12.195 0.000556315 11.9046C-0.00784483 11.6142 0.087307 11.3615 0.286011 11.1463L4.55086 6.52728L0.260807 1.881C0.0789058 1.684 -0.00784483 1.42666 0.000556315 1.10898C0.00895746 0.79131 0.104109 0.533971 0.286011 0.336965C0.501517 0.103565 0.739126 -0.00858665 0.998839 0.000512083C1.25855 0.00961081 1.48776 0.121762 1.68646 0.336965L6.70194 5.7689C6.80494 5.88047 6.88037 5.99975 6.92822 6.12673C6.97607 6.25371 7 6.38723 7 6.52728C7 6.66732 6.97607 6.80084 6.92822 6.92782C6.88037 7.0548 6.80494 7.17408 6.70194 7.28565L1.71167 12.6903C1.51296 12.9055 1.27955 13.0085 1.01144 12.9994C0.743327 12.9903 0.501517 12.8873 0.286011 12.6903Z" fill="#0D7AFF"/>
                                </svg>