<svg width="21" height="21" viewBox="0 0 21 21" fill="none" xmlns="http://www.w3.org/2000/svg">
<path d="M8.675 14.8L15.8 7.65L14.525 6.4L8.675 12.275L5.725 9.325L4.475 10.575L8.675 14.8ZM10.15 20.3C8.76667 20.3 7.45417 20.0333 6.2125 19.5C4.97083 18.9667 3.89167 18.2417 2.975 17.325C2.05833 16.4083 1.33333 15.3333 0.8 14.1C0.266667 12.8667 0 11.55 0 10.15C0 8.75 0.266667 7.42917 0.8 6.1875C1.33333 4.94583 2.05833 3.87083 2.975 2.9625C3.89167 2.05417 4.96667 1.33333 6.2 0.8C7.43333 0.266667 8.75 0 10.15 0C11.55 0 12.8708 0.266667 14.1125 0.8C15.3542 1.33333 16.4292 2.05417 17.3375 2.9625C18.2458 3.87083 18.9667 4.94167 19.5 6.175C20.0333 7.40833 20.3 8.73333 20.3 10.15C20.3 11.55 20.0333 12.8667 19.5 14.1C18.9667 15.3333 18.2458 16.4083 17.3375 17.325C16.4292 18.2417 15.3583 18.9667 14.125 19.5C12.8917 20.0333 11.5667 20.3 10.15 20.3Z" fill="#54BE5F"/>
</svg>
