<svg width="13" height="7" viewBox="0 0 13 7" fill="none" xmlns="http://www.w3.org/2000/svg">
<path d="M0.30971 0.286011C0.54311 0.104109 0.804999 0.00895746 1.09538 0.000556315C1.38575 -0.00784483 1.63854 0.087307 1.85375 0.286011L6.47272 4.55086L11.119 0.260807C11.316 0.0789058 11.5733 -0.00784483 11.891 0.000556315C12.2087 0.00895746 12.466 0.104109 12.663 0.286011C12.8964 0.501517 13.0086 0.739126 12.9995 0.998839C12.9904 1.25855 12.8782 1.48776 12.663 1.68646L7.2311 6.70194C7.11953 6.80494 7.00025 6.88037 6.87327 6.92822C6.74629 6.97607 6.61277 7 6.47272 7C6.33268 7 6.19916 6.97607 6.07218 6.92822C5.9452 6.88037 5.82592 6.80494 5.71435 6.70194L0.30971 1.71167C0.0945063 1.51296 -0.00854588 1.27955 0.000553131 1.01144C0.00965214 0.743327 0.112704 0.501517 0.30971 0.286011Z" fill="#003F6C"/>
</svg>
