<svg width="23" height="16" viewBox="0 0 23 16" fill="none" xmlns="http://www.w3.org/2000/svg">
<path d="M11.5 12.4066C12.7326 12.4066 13.7786 11.9769 14.638 11.1175C15.4974 10.2581 15.9271 9.21213 15.9271 7.97949C15.9271 6.74685 15.4974 5.70085 14.638 4.84147C13.7786 3.9821 12.7326 3.55241 11.5 3.55241C10.2674 3.55241 9.22135 3.9821 8.36198 4.84147C7.5026 5.70085 7.07292 6.74685 7.07292 7.97949C7.07292 9.21213 7.5026 10.2581 8.36198 11.1175C9.22135 11.9769 10.2674 12.4066 11.5 12.4066ZM11.5 10.792C10.7187 10.792 10.0547 10.5186 9.50781 9.97168C8.96094 9.4248 8.6875 8.76074 8.6875 7.97949C8.6875 7.19824 8.96094 6.53418 9.50781 5.9873C10.0547 5.44043 10.7187 5.16699 11.5 5.16699C12.2812 5.16699 12.9453 5.44043 13.4922 5.9873C14.0391 6.53418 14.3125 7.19824 14.3125 7.97949C14.3125 8.76074 14.0391 9.4248 13.4922 9.97168C12.9453 10.5186 12.2812 10.792 11.5 10.792ZM11.5 15.9482C9.08681 15.9482 6.88194 15.2885 4.88542 13.9691C2.88889 12.6496 1.35243 10.9048 0.276042 8.7347C0.206597 8.64789 0.158854 8.53505 0.132813 8.39616C0.106771 8.25727 0.09375 8.11838 0.09375 7.97949C0.09375 7.8406 0.106771 7.70171 0.132813 7.56283C0.158854 7.42394 0.206597 7.30241 0.276042 7.19824C1.35243 5.04546 2.88889 3.30935 4.88542 1.98991C6.88194 0.670465 9.08681 0.0107422 11.5 0.0107422C13.9132 0.0107422 16.1181 0.670465 18.1146 1.98991C20.1111 3.30935 21.6476 5.04546 22.724 7.19824C22.7934 7.30241 22.8411 7.42394 22.8672 7.56283C22.8932 7.70171 22.9062 7.8406 22.9062 7.97949C22.9062 8.11838 22.8932 8.25727 22.8672 8.39616C22.8411 8.53505 22.7934 8.64789 22.724 8.7347C21.6476 10.9048 20.1111 12.6496 18.1146 13.9691C16.1181 15.2885 13.9132 15.9482 11.5 15.9482ZM11.5 14.2295C13.6007 14.2295 15.5321 13.6609 17.2943 12.5238C19.0564 11.3866 20.3976 9.87185 21.3177 7.97949C20.3976 6.08713 19.0564 4.57237 17.2943 3.43522C15.5321 2.29807 13.6007 1.72949 11.5 1.72949C9.39931 1.72949 7.46788 2.29807 5.70573 3.43522C3.94358 4.57237 2.59375 6.08713 1.65625 7.97949C2.59375 9.87185 3.94358 11.3866 5.70573 12.5238C7.46788 13.6609 9.39931 14.2295 11.5 14.2295Z" fill="#A9AFB5"/>
</svg>
