<svg width="19" height="19" viewBox="0 0 19 19" fill="none" xmlns="http://www.w3.org/2000/svg">
<path d="M3.60524 17.5352C3.24109 17.5352 2.92531 17.4015 2.65791 17.1341C2.39053 16.8667 2.25684 16.5509 2.25684 16.1868V4.00111C2.25684 3.63566 2.39053 3.31877 2.65791 3.05045C2.92531 2.78212 3.24109 2.64795 3.60524 2.64795H4.84911V1.46045H6.21602V2.64795H12.7843V1.46045H14.1512V2.64795H15.3951C15.7605 2.64795 16.0774 2.78212 16.3457 3.05045C16.614 3.31877 16.7482 3.63566 16.7482 4.00111V16.1868C16.7482 16.5509 16.614 16.8667 16.3457 17.1341C16.0774 17.4015 15.7605 17.5352 15.3951 17.5352H3.60524ZM3.60524 16.1868H15.3951V7.71893H3.60524V16.1868ZM3.60524 6.53143H15.3951V4.00111H3.60524V6.53143ZM9.50065 11.1119C9.26844 11.1119 9.07363 11.0334 8.91622 10.8763C8.75879 10.7192 8.68008 10.5246 8.68008 10.2923C8.68008 10.0601 8.75862 9.86532 8.9157 9.70791C9.0728 9.55049 9.26745 9.47178 9.49966 9.47178C9.73186 9.47178 9.92667 9.55032 10.0841 9.7074C10.2415 9.86449 10.3202 10.0591 10.3202 10.2914C10.3202 10.5236 10.2417 10.7184 10.0846 10.8758C9.92751 11.0332 9.73285 11.1119 9.50065 11.1119ZM6.33398 11.1119C6.10177 11.1119 5.90696 11.0334 5.74955 10.8763C5.59213 10.7192 5.51342 10.5246 5.51342 10.2923C5.51342 10.0601 5.59196 9.86532 5.74904 9.70791C5.90613 9.55049 6.10078 9.47178 6.33299 9.47178C6.5652 9.47178 6.76001 9.55032 6.91742 9.7074C7.07484 9.86449 7.15355 10.0591 7.15355 10.2914C7.15355 10.5236 7.07501 10.7184 6.91793 10.8758C6.76084 11.0332 6.56619 11.1119 6.33398 11.1119ZM12.6673 11.1119C12.4395 11.1119 12.2458 11.0334 12.0862 10.8763C11.9266 10.7192 11.8467 10.5246 11.8467 10.2923C11.8467 10.0601 11.9264 9.86532 12.0857 9.70791C12.245 9.55049 12.4393 9.47178 12.6687 9.47178C12.8981 9.47178 13.0918 9.55032 13.2498 9.7074C13.4079 9.86449 13.4869 10.0591 13.4869 10.2914C13.4869 10.5236 13.4083 10.7184 13.2513 10.8758C13.0942 11.0332 12.8995 11.1119 12.6673 11.1119ZM9.50065 14.2786C9.26844 14.2786 9.07363 14.1989 8.91622 14.0396C8.75879 13.8803 8.68008 13.686 8.68008 13.4567C8.68008 13.2273 8.75862 13.0336 8.9157 12.8755C9.0728 12.7175 9.26745 12.6384 9.49966 12.6384C9.73186 12.6384 9.92667 12.717 10.0841 12.8741C10.2415 13.0312 10.3202 13.2258 10.3202 13.458C10.3202 13.6858 10.2417 13.8795 10.0846 14.0391C9.92751 14.1988 9.73285 14.2786 9.50065 14.2786ZM6.33398 14.2786C6.10177 14.2786 5.90696 14.1989 5.74955 14.0396C5.59213 13.8803 5.51342 13.686 5.51342 13.4567C5.51342 13.2273 5.59196 13.0336 5.74904 12.8755C5.90613 12.7175 6.10078 12.6384 6.33299 12.6384C6.5652 12.6384 6.76001 12.717 6.91742 12.8741C7.07484 13.0312 7.15355 13.2258 7.15355 13.458C7.15355 13.6858 7.07501 13.8795 6.91793 14.0391C6.76084 14.1988 6.56619 14.2786 6.33398 14.2786ZM12.6673 14.2786C12.4395 14.2786 12.2458 14.1989 12.0862 14.0396C11.9266 13.8803 11.8467 13.686 11.8467 13.4567C11.8467 13.2273 11.9264 13.0336 12.0857 12.8755C12.245 12.7175 12.4393 12.6384 12.6687 12.6384C12.8981 12.6384 13.0918 12.717 13.2498 12.8741C13.4079 13.0312 13.4869 13.2258 13.4869 13.458C13.4869 13.6858 13.4083 13.8795 13.2513 14.0391C13.0942 14.1988 12.8995 14.2786 12.6673 14.2786Z" fill="#0D7AFF"/>
</svg>
