<svg width="20" height="20" viewBox="0 0 20 20" fill="none" xmlns="http://www.w3.org/2000/svg">
<path d="M6.50004 9.18742C6.22226 9.18742 6.01046 9.06589 5.86462 8.82283C5.71879 8.57978 5.72226 8.33325 5.87504 8.08325L9.41671 2.41659C9.5556 2.19436 9.75351 2.08325 10.0105 2.08325C10.2674 2.08325 10.4723 2.19436 10.625 2.41659L14.1667 8.08325C14.3195 8.33325 14.323 8.57978 14.1771 8.82283C14.0313 9.06589 13.8195 9.18742 13.5417 9.18742H6.50004ZM14.8125 18.5624C13.757 18.5624 12.8681 18.2013 12.1459 17.4791C11.4237 16.7569 11.0625 15.868 11.0625 14.8124C11.0625 13.7569 11.4202 12.868 12.1355 12.1458C12.8507 11.4235 13.7431 11.0624 14.8125 11.0624C15.8681 11.0624 16.757 11.4235 17.4792 12.1458C18.2014 12.868 18.5625 13.7569 18.5625 14.8124C18.5625 15.868 18.2014 16.7569 17.4792 17.4791C16.757 18.2013 15.8681 18.5624 14.8125 18.5624ZM2.91671 18.0416C2.72226 18.0416 2.5556 17.9721 2.41671 17.8333C2.27782 17.6944 2.20837 17.5277 2.20837 17.3333V12.1666C2.20837 11.9721 2.27782 11.8055 2.41671 11.6666C2.5556 11.5277 2.72226 11.4583 2.91671 11.4583H8.08337C8.29171 11.4583 8.46185 11.5277 8.59379 11.6666C8.72573 11.8055 8.79171 11.9721 8.79171 12.1666V17.3333C8.79171 17.5277 8.72573 17.6944 8.59379 17.8333C8.46185 17.9721 8.29171 18.0416 8.08337 18.0416H2.91671ZM14.8125 17.1458C15.4653 17.1458 16.0174 16.9201 16.4688 16.4687C16.9202 16.0173 17.1459 15.4652 17.1459 14.8124C17.1459 14.1596 16.9202 13.6076 16.4688 13.1562C16.0174 12.7048 15.4653 12.4791 14.8125 12.4791C14.1598 12.4791 13.6077 12.7048 13.1563 13.1562C12.7049 13.6076 12.4792 14.1596 12.4792 14.8124C12.4792 15.4652 12.7049 16.0173 13.1563 16.4687C13.6077 16.9201 14.1598 17.1458 14.8125 17.1458ZM3.62504 16.6249H7.37504V12.8749H3.62504V16.6249ZM7.77087 7.74992H12.2709L10.0209 4.12492L7.77087 7.74992Z" fill="#003F6C"/>
</svg>
