<svg width="15" height="19" viewBox="0 0 15 19" fill="none" xmlns="http://www.w3.org/2000/svg">
<path d="M3.97815 14.5316H11.0219V13.1754H3.97815V14.5316ZM3.97815 10.8129H11.0219V9.45664H3.97815V10.8129ZM1.85627 18.3816C1.46252 18.3816 1.11617 18.2322 0.817212 17.9332C0.518254 17.6342 0.368774 17.2879 0.368774 16.8941V2.10664C0.368774 1.69831 0.518254 1.34831 0.817212 1.05664C1.11617 0.764974 1.46252 0.619141 1.85627 0.619141H9.77502L14.6313 5.47539V16.8941C14.6313 17.2879 14.4854 17.6342 14.1938 17.9332C13.9021 18.2322 13.5521 18.3816 13.1438 18.3816H1.85627ZM9.0094 6.17539V2.10664H1.85627V16.8941H13.1438V6.17539H9.0094Z" fill="#0D7AFF"/>
</svg>
