<svg width="20" height="20" viewBox="0 0 20 20" fill="none" xmlns="http://www.w3.org/2000/svg">
<path d="M7.63067 20L7.1362 16.8502C6.85011 16.7471 6.5448 16.6019 6.22028 16.4147C5.89577 16.2275 5.61295 16.0351 5.37183 15.8374L2.44801 17.1907L0.0415039 12.9108L2.71514 10.9419C2.68646 10.8059 2.66805 10.6494 2.6599 10.4724C2.65176 10.2954 2.64769 10.1389 2.64769 10.003C2.64769 9.86698 2.65176 9.71049 2.6599 9.53349C2.66805 9.35647 2.68646 9.19998 2.71514 9.06402L0.0415039 7.08923L2.44801 2.82114L5.3835 4.16853C5.62073 3.97475 5.90063 3.78524 6.22319 3.60002C6.54577 3.41481 6.85011 3.27688 7.1362 3.18623L7.63067 0H12.3831L12.8776 3.1616C13.1637 3.26867 13.4721 3.4107 13.8028 3.58771C14.1335 3.76472 14.4132 3.95833 14.642 4.16853L17.5716 2.82114L19.9723 7.08923L17.2928 9.01477C17.3215 9.16715 17.3409 9.33184 17.351 9.50886C17.3611 9.68586 17.3661 9.85056 17.3661 10.003C17.3661 10.1553 17.3611 10.3159 17.351 10.4847C17.3409 10.6535 17.3215 10.8141 17.2928 10.9665L19.9723 12.9108L17.5658 17.1907L14.6361 15.8374C14.395 16.0351 14.1172 16.2307 13.8028 16.4241C13.4884 16.6175 13.18 16.7596 12.8776 16.8502L12.3831 20H7.63067ZM9.99522 13.2042C10.8748 13.2042 11.624 12.8922 12.2429 12.2684C12.8619 11.6446 13.1713 10.8894 13.1713 10.003C13.1713 9.11647 12.8619 8.36132 12.2429 7.73749C11.624 7.11367 10.8748 6.80176 9.99522 6.80176C9.11569 6.80176 8.36646 7.11367 7.74752 7.73749C7.12859 8.36132 6.81913 9.11647 6.81913 10.003C6.81913 10.8894 7.12859 11.6446 7.74752 12.2684C8.36646 12.8922 9.11569 13.2042 9.99522 13.2042ZM9.99522 11.7267C9.51899 11.7267 9.11489 11.5584 8.78293 11.2219C8.45099 10.8853 8.28502 10.479 8.28502 10.003C8.28502 9.52688 8.45099 9.12057 8.78293 8.78404C9.11489 8.4475 9.51899 8.27923 9.99522 8.27923C10.4676 8.27923 10.8707 8.4475 11.2046 8.78404C11.5385 9.12057 11.7054 9.52688 11.7054 10.003C11.7054 10.479 11.5385 10.8853 11.2046 11.2219C10.8707 11.5584 10.4676 11.7267 9.99522 11.7267ZM8.97865 18.3223H11.0293L11.3772 15.5703C11.9186 15.4389 12.4324 15.2337 12.9188 14.9546C13.4051 14.6756 13.8437 14.3331 14.2346 13.9274L16.8243 15.0601L17.749 13.3637L15.4642 11.6764C15.5293 11.3933 15.5832 11.1144 15.6259 10.8397C15.6686 10.5649 15.6899 10.286 15.6899 10.003C15.6899 9.71995 15.6726 9.44105 15.6381 9.16626C15.6036 8.89147 15.5456 8.61256 15.4642 8.32954L17.7549 6.64224L16.8243 4.9458L14.2405 6.07853C13.8659 5.64386 13.4385 5.27994 12.9583 4.98678C12.4782 4.6936 11.9512 4.50793 11.3772 4.42977L11.0352 1.68358H8.97865L8.64245 4.42977C8.08088 4.54076 7.55596 4.73874 7.06769 5.02371C6.5794 5.30867 6.146 5.66028 5.7675 6.07853L3.18946 4.9458L2.25893 6.64224L4.53795 8.32366C4.4728 8.60666 4.4189 8.88654 4.37624 9.16331C4.33357 9.44007 4.31223 9.71995 4.31223 10.003C4.31223 10.286 4.33357 10.5668 4.37624 10.8455C4.4189 11.1243 4.4728 11.4032 4.53795 11.6823L2.25893 13.3637L3.18946 15.0601L5.7675 13.9274C6.16229 14.3292 6.60384 14.6716 7.09212 14.9546C7.5804 15.2376 8.09717 15.4448 8.64245 15.5761L8.97865 18.3223Z" fill="#003F6C"/>
</svg>
