<svg width="15" height="21" viewBox="0 0 15 21" fill="none" xmlns="http://www.w3.org/2000/svg">
<path d="M7.47604 21C7.28434 21 7.10863 20.9685 6.94888 20.9056C6.78914 20.8427 6.64537 20.7483 6.51757 20.6225L0.287539 14.4876C0.0958457 14.2674 0 14.0079 0 13.709C0 13.4101 0.11182 13.1506 0.335462 12.9303C0.559104 12.7101 0.814696 12.6 1.10224 12.6C1.38978 12.6 1.66134 12.7101 1.91693 12.9303L6.3738 17.4135V1.08539C6.3738 0.770787 6.47763 0.511237 6.6853 0.306742C6.89297 0.102248 7.15655 0 7.47604 0C7.79553 0 8.0591 0.102248 8.26677 0.306742C8.47444 0.511237 8.57827 0.770787 8.57827 1.08539V17.4135L13.0831 12.9303C13.3067 12.7416 13.5703 12.6393 13.8738 12.6236C14.1773 12.6079 14.4409 12.7101 14.6645 12.9303C14.8882 13.1506 15 13.4101 15 13.709C15 14.0079 14.8882 14.2674 14.6645 14.4876L8.4345 20.6225C8.30671 20.7483 8.16294 20.8427 8.00319 20.9056C7.84345 20.9685 7.66773 21 7.47604 21Z" fill="#FFA862"/>
</svg>
