<svg width="22" height="22" viewBox="0 0 22 22" fill="none" xmlns="http://www.w3.org/2000/svg">
<path d="M10.9871 21.3813C9.27595 21.3813 7.62595 20.89 6.03706 19.9076C4.44817 18.9252 3.18244 17.802 2.23986 16.5379V19.5479H0.579895V13.6075H6.52031V15.2675H3.38072C4.15989 16.4007 5.26056 17.4241 6.68272 18.3378C8.10488 19.2515 9.53966 19.7083 10.9871 19.7083C12.1615 19.7083 13.2752 19.4835 14.3284 19.0338C15.3816 18.5841 16.3037 17.9723 17.0948 17.1985C17.886 16.4246 18.5172 15.5111 18.9885 14.4579C19.4598 13.4048 19.6997 12.278 19.7083 11.0777H21.3813C21.3726 12.5112 21.0918 13.8541 20.5388 15.1066C19.9859 16.359 19.2359 17.4522 18.289 18.3862C17.3421 19.3201 16.2425 20.0528 14.99 20.5842C13.7376 21.1156 12.4032 21.3813 10.9871 21.3813ZM10.2577 17.5771V16.3914C9.60476 16.2253 9.03234 15.9291 8.54046 15.5026C8.04857 15.0762 7.64653 14.49 7.33433 13.744L8.64558 13.3026C8.82028 13.9005 9.13414 14.3674 9.58715 14.7035C10.0402 15.0397 10.5646 15.2077 11.1604 15.2077C11.7802 15.2077 12.2774 15.0674 12.652 14.7867C13.0266 14.5061 13.214 14.13 13.214 13.6583C13.214 13.1801 13.0338 12.7756 12.6734 12.4448C12.3131 12.1139 11.6643 11.7519 10.727 11.3587C9.73262 10.9595 8.99331 10.5276 8.50906 10.0629C8.02483 9.59827 7.78272 8.97869 7.78272 8.20417C7.78272 7.53195 8.00325 6.95255 8.4443 6.46598C8.88537 5.97942 9.50512 5.67403 10.3036 5.54982V4.44583H11.7194V5.54982C12.3086 5.6282 12.8128 5.82016 13.2319 6.12572C13.651 6.43127 13.9991 6.88164 14.2761 7.47682L13.0336 8.05571C12.8044 7.61066 12.5196 7.28118 12.1792 7.0673C11.8388 6.85341 11.4437 6.74646 10.994 6.74646C10.4414 6.74646 10.004 6.87317 9.6818 7.12658C9.35964 7.37999 9.19855 7.72192 9.19855 8.15235C9.19855 8.62398 9.3907 9.00493 9.77498 9.29521C10.1592 9.58549 10.7901 9.91396 11.6676 10.2806C12.739 10.7237 13.5006 11.2004 13.9523 11.7109C14.404 12.2214 14.6298 12.8705 14.6298 13.6583C14.6298 14.0662 14.5611 14.4327 14.4236 14.7578C14.2861 15.083 14.0891 15.3623 13.8327 15.5958C13.5763 15.8293 13.2669 16.0164 12.9046 16.1573C12.5422 16.2981 12.1319 16.3914 11.6736 16.4372V17.5771H10.2577ZM0.618739 10.9223C0.618739 9.51473 0.890912 8.18473 1.43526 6.93229C1.97962 5.67984 2.72093 4.58664 3.65918 3.65271C4.59745 2.71877 5.69713 1.97962 6.9582 1.43527C8.21929 0.89091 9.56656 0.618729 11 0.618729C12.7111 0.618729 14.3654 1.1121 15.963 2.09885C17.5605 3.08559 18.8219 4.20668 19.7472 5.46212V2.45206H21.4201V8.3925H15.4797V6.73251H18.6193C17.8142 5.5734 16.698 4.54347 15.2705 3.64274C13.843 2.74203 12.4195 2.29167 11 2.29167C9.82561 2.29167 8.71183 2.51652 7.65867 2.96622C6.6055 3.41592 5.68334 4.0277 4.89222 4.80155C4.1011 5.5754 3.4699 6.48891 2.99861 7.54208C2.52732 8.59524 2.28736 9.72198 2.27873 10.9223H0.618739Z" fill="#003F6C"/>
</svg>
