<svg width="21" height="24" viewBox="0 0 21 24" fill="none" xmlns="http://www.w3.org/2000/svg">
<path d="M2.74355 23.2031C2.2644 23.2031 1.8489 23.0266 1.49706 22.6735C1.14524 22.3205 0.96933 21.9035 0.96933 21.4227V7.73891C0.96933 7.25804 1.14524 6.84108 1.49706 6.48802C1.8489 6.13497 2.2644 5.95844 2.74355 5.95844H5.4836C5.4836 4.57031 5.94939 3.38721 6.88097 2.40914C7.81257 1.43107 8.97502 0.942032 10.3683 0.942032C11.7616 0.942032 12.9679 1.43113 13.9873 2.40932C15.0067 3.38754 15.5164 4.57057 15.5164 5.95844H18.2565C18.7373 5.95844 19.1543 6.13497 19.5073 6.48802C19.8604 6.84108 20.0369 7.25804 20.0369 7.73891V21.4227C20.0369 21.9035 19.8604 22.3205 19.5073 22.6735C19.1543 23.0266 18.7373 23.2031 18.2565 23.2031H2.74355ZM2.74355 21.4227H18.2565V7.73891H2.74355V21.4227ZM10.4985 14.0574C11.8918 14.0574 13.0981 13.5481 14.1175 12.5294C15.1369 11.5107 15.6466 10.3045 15.6466 8.91078H13.8724C13.8724 9.83243 13.5407 10.6249 12.8774 11.2882C12.2141 11.9515 11.4217 12.2832 10.5 12.2832C9.57836 12.2832 8.78588 11.9515 8.12259 11.2882C7.45927 10.6249 7.12761 9.83243 7.12761 8.91078H5.35339C5.35339 10.3045 5.86259 11.5107 6.88097 12.5294C7.89937 13.5481 9.10522 14.0574 10.4985 14.0574ZM7.25782 5.95844H13.7422C13.7422 5.04096 13.4322 4.27226 12.8123 3.65234C12.1924 3.03245 11.4217 2.7225 10.5 2.7225C9.57836 2.7225 8.80759 3.03254 8.18769 3.6526C7.56778 4.27267 7.25782 5.04129 7.25782 5.95844Z" fill="#003F6C"/>
</svg>
