<svg width="19" height="22" viewBox="0 0 19 22" fill="none" xmlns="http://www.w3.org/2000/svg">
<path d="M5.06159 17.4464H13.8308V16.1326H5.06159V17.4464ZM5.06159 12.6032H13.8308V11.2895H5.06159V12.6032ZM2.39233 22C1.93568 22 1.5416 21.8352 1.21008 21.5055C0.878559 21.1759 0.712799 20.784 0.712799 20.3299V1.67006C0.712799 1.216 0.878559 0.824133 1.21008 0.49448C1.5416 0.164826 1.93568 0 2.39233 0H12.5096L18.1796 5.63804V20.3299C18.1796 20.784 18.0139 21.1759 17.6823 21.5055C17.3508 21.8352 16.9567 22 16.5001 22H2.39233ZM11.849 6.23033V1.31375H2.39233C2.30274 1.31375 2.22062 1.35086 2.14596 1.42508C2.07131 1.49932 2.03399 1.58098 2.03399 1.67006V20.3299C2.03399 20.419 2.07131 20.5007 2.14596 20.5749C2.22062 20.6491 2.30274 20.6862 2.39233 20.6862H16.5001C16.5897 20.6862 16.6718 20.6491 16.7465 20.5749C16.8211 20.5007 16.8584 20.419 16.8584 20.3299V6.23033H11.849Z" fill="#003F6C"/>
</svg>
