<svg width="28" height="28" viewBox="0 0 28 28" fill="none" xmlns="http://www.w3.org/2000/svg">
<circle cx="14" cy="14" r="14" fill="#F3F3F5"/>
<path d="M13.9844 19C13.8686 19 13.7603 18.9793 13.6595 18.9378C13.5587 18.8964 13.4607 18.8279 13.3655 18.7325L8.22635 13.5377C8.06724 13.3758 7.99202 13.1635 8.00067 12.9007C8.00932 12.6379 8.0932 12.425 8.25231 12.2621C8.44604 12.0642 8.65688 11.9784 8.88484 12.0046C9.11279 12.0308 9.31499 12.1244 9.49141 12.2852L13.9851 16.8275L18.4787 12.2852C18.6399 12.1244 18.8513 12.0352 19.1128 12.0177C19.3743 12.0002 19.5846 12.0903 19.7438 12.2879C19.9375 12.4505 20.0214 12.6593 19.9954 12.9141C19.9694 13.169 19.8769 13.3856 19.7178 13.5639L14.6046 18.7325C14.5091 18.8279 14.4108 18.8964 14.3097 18.9378C14.2086 18.9793 14.1001 19 13.9844 19Z" fill="#3E3E3E"/>
</svg>
